<svg xmlns="http://www.w3.org/2000/svg" xmlns:xlink="http://www.w3.org/1999/xlink" viewBox="0 0 100 100"><path fill="#fff" d="M20.4 55.6A.9.9 0 1 0 20.4 57.4.9.9 0 1 0 20.4 55.6zM79.4 30.900000000000002A.7.7 0 1 0 79.4 32.300000000000004.7.7 0 1 0 79.4 30.900000000000002z"/><path fill="#f1bc19" d="M76.8 11.7A.9.9 0 1 0 76.8 13.5.9.9 0 1 0 76.8 11.7zM20.9 63.300000000000004A.9.9 0 1 0 20.9 65.10000000000001.9.9 0 1 0 20.9 63.300000000000004z"/><path fill="#fce0a2" d="M49.7 12.299999999999997A37.5 37.5 0 1 0 49.7 87.3A37.5 37.5 0 1 0 49.7 12.299999999999997Z"/><path fill="#f1bc19" d="M82.3 10.7A4 4 0 1 0 82.3 18.7A4 4 0 1 0 82.3 10.7Z"/><path fill="#ee3e54" d="M86.3 21.900000000000002A1.9 1.9 0 1 0 86.3 25.7A1.9 1.9 0 1 0 86.3 21.900000000000002Z"/><path fill="#fbcd59" d="M77.3 74.3A1.9 1.9 0 1 0 77.3 78.10000000000001 1.9 1.9 0 1 0 77.3 74.3zM14.1 59.3A4 4 0 1 0 14.1 67.3 4 4 0 1 0 14.1 59.3z"/><path fill="#ee3e54" d="M24.4 85.5A1.9 1.9 0 1 0 24.4 89.30000000000001A1.9 1.9 0 1 0 24.4 85.5Z"/><path fill="#fff" d="M18.1 52.1A2.5 2.5 0 1 0 18.1 57.1A2.5 2.5 0 1 0 18.1 52.1Z"/><path fill="#fdfcee" d="M55.3,65.3H27.2c-2,0-3.7-1.6-3.7-3.7V45.7c0-2,1.6-3.7,3.7-3.7h28.2c2,0,3.7,1.6,3.7,3.7v15.9 C59,63.6,57.4,65.3,55.3,65.3z"/><path fill="#472b29" d="M55.3,65.8H27.2c-2.3,0-4.3-1.9-4.3-4.3V45.7c0-2.3,1.9-4.3,4.3-4.3h28.2c2.3,0,4.3,1.9,4.3,4.3 v15.9C59.6,63.9,57.7,65.8,55.3,65.8z M27.2,42.6c-1.7,0-3.1,1.4-3.1,3.1v15.9c0,1.7,1.4,3.1,3.1,3.1h28.2 c1.7,0,3.1-1.4,3.1-3.1V45.7c0-1.7-1.4-3.1-3.1-3.1H27.2z"/><path fill="#472b29" d="M46.2 52.7c-.1 0-.2-.1-.3-.1-.1-.2-.1-.4.1-.5l12.1-8.6c.2-.1.4-.1.5.1.1.2.1.4-.1.5l-12.1 8.6C46.4 52.7 46.3 52.7 46.2 52.7zM37.3 52.7c-.1 0-.1 0-.2-.1L24.5 44c-.2-.1-.2-.3-.1-.5.1-.2.3-.2.5-.1L37.5 52c.2.1.2.3.1.5C37.5 52.6 37.4 52.7 37.3 52.7zM23.9 63.4c-.1 0-.2-.1-.3-.2-.1-.2-.1-.4.1-.5l17.4-11.3c.5-.3 1.2-.3 1.7 0l16 11.3c.2.1.2.3.1.5-.1.2-.3.2-.5.1l-16-11.3c-.3-.2-.6-.2-.9 0L24.1 63.3C24 63.4 23.9 63.4 23.9 63.4z"/><path fill="#fdfcee" d="M29.1,45.4V39l8.4-7.4h13.2c1.9-0.1,3.5,1.3,3.6,3.2V43"/><path fill="#472b29" d="M29.1,45.8c-0.2,0-0.4-0.2-0.4-0.4V39c0-0.1,0-0.2,0.1-0.3l8.4-7.4c0.1-0.1,0.1-0.1,0.2-0.1 h13.2c2-0.1,3.8,1.5,3.9,3.5V43c0,0.2-0.2,0.4-0.3,0.4s-0.3-0.2-0.3-0.4v-8.2c-0.1-1.6-1.6-2.9-3.2-2.8l-13.1,0l-8.1,7.2v6.3 C29.5,45.6,29.3,45.8,29.1,45.8z"/><path fill="#cbc9bc" d="M50.7 46.9H40.6c-.2 0-.4-.2-.4-.4s.2-.4.4-.4h10.1c.2 0 .3.2.3.4S50.9 46.9 50.7 46.9zM50.7 44.3H40.6c-.2 0-.4-.2-.4-.4s.2-.4.4-.4h10.1c.2 0 .3.2.3.4S50.9 44.3 50.7 44.3z"/><path fill="#e1e0d8" d="M38.4 46.4L38.4 41.4 32.7 41.4 32.7 47.3 37.2 47.3"/><path fill="#cbc9bc" d="M37.2 47.6h-4.5c-.2 0-.4-.2-.4-.4v-5.9c0-.2.2-.4.4-.4h5.7c.2 0 .4.2.4.4v4.9c0 .2-.2.4-.4.4s-.4-.2-.4-.4v-4.6h-5v5.1h4.1c.2 0 .4.2.4.4S37.4 47.6 37.2 47.6zM50.7 41.8H40.6c-.2 0-.4-.2-.4-.4s.2-.4.4-.4h10.1c.2 0 .3.2.3.4S50.9 41.8 50.7 41.8z"/><path fill="#cdcbbd" d="M37.7,31.7v4.1c-0.2,1.9-1.8,3.3-3.7,3.2h-4.8"/><path fill="#472b29" d="M34.2,39.4c-0.1,0-0.1,0-0.2,0l-4.8,0c-0.2,0-0.4-0.2-0.4-0.4s0.2-0.4,0.4-0.4H34 c1.8,0.1,3.2-1.2,3.4-2.9l0-4.1c0-0.2,0.2-0.4,0.4-0.4s0.4,0.2,0.4,0.4v4.1C37.9,37.9,36.2,39.4,34.2,39.4z"/><path fill="#d8ad8f" d="M73.8,57.8c-0.6-0.4-7.6-2.8-7.6-2.8c-0.4-0.1-0.7-0.5-0.8-0.9c-0.1-0.7-0.2-1.4-0.2-2.1 c1.9-1.1,3.5-2.6,4.6-4.5c0.2-0.4,0.3-0.8,0.3-1.3c0-0.7,0-1.5,0-2.2c0.5-0.1,0.8-0.4,0.9-0.9c0.3-0.9,0.7-2.9,0.7-2.9 c0.4-1.2-0.2-1.8-1.3-1.8c0.3-0.2,0.6-0.5,0.8-0.9h0.1h0.3c1.5,0.5,3.8,0.2,4.4-3.3c-0.5,0.7-1.4,1-2.2,0.9 c0-0.3-0.1-0.6-0.2-0.9c0.5-0.4,0.7-1,0.7-1.6c0-1.3-1.1-2.3-2.4-2.3c0,0,0,0,0,0l0,0c0.1-0.3,0.1-0.6,0.1-0.9c0-1.7-1.3-3-3-3 c0,0,0,0-0.1,0c-0.3,0-0.6,0-0.8,0.1v-0.1c-0.1-2-1.8-3.6-3.8-3.5c-1.1,0-2.2,0.5-3,1.3c-0.9-0.5-1.8-0.8-2.8-0.8 c-2.5,0-4.6,1.6-4.6,3.7c0,0.1,0,0.2,0,0.3c-0.6,0.3-1,0.8-1.3,1.4c-0.2,0.6,0.5,2.3,0.4,2.3l0,0c-0.8-0.1-1.4,0.5-1.5,1.2 c0,0.2,0,0.4,0.1,0.6c0.1,0.3,0.7,5.4,1,5.5c-1.2,0-1.7,0.6-1.3,1.8c0,0,0.4,2,0.7,2.9c0.1,0.5,0.6,0.9,1.1,0.9 c0,0.6,0,1.2,0,1.9c0,0.7,0.2,1.5,0.6,2.1c1.1,1.6,2.5,2.9,4.2,3.9c0,0.7-0.1,1.4-0.2,2.1c0,0.4-0.3,0.8-0.7,0.9l-5.8,2 c-0.6,0.2-1.1,0.4-1.6,0.7c-1.6,1.2-2.6,3.1-2.7,5.1h29.3C76.2,60.9,75.3,59,73.8,57.8z"/><path fill="#b2876b" d="M73.8,57.7l-0.3-0.1l-0.4-0.2C72.2,57,66.2,55,66.2,55c-0.4-0.1-0.7-0.4-0.9-0.8 c-0.2-0.8-0.2-1.6-0.2-2.4c-1,0.6-2,1-3.1,1.3c-1.4,0.1-3.8-1.2-3.8-1.2s-0.1,1.8-0.2,2.3c-0.1,0.4-0.5,0.7-0.9,0.8l-5.7,1.9 c-2,0.5-3.6,2.1-4,4.2l0,0c0,0.1,0,0.2-0.1,0.5c-0.1,0.3-0.1,0.7-0.1,1c0,0.3-0.2,4.5-0.3,4.9c5.6,3.9,7.8,4.5,15.6,4.5 c3.4,0,11-2.1,14-3.3C76.2,61.8,76.9,58.7,73.8,57.7z"/><path fill="#f1bc19" d="M61.5 55.400000000000006A0.8 0.8 0 1 0 61.5 57A0.8 0.8 0 1 0 61.5 55.400000000000006Z"/><path fill="#f1bc19" d="M61.5,55.5c-1.9,0-3.9-0.5-3.9-1.5c0-0.1,0.1-0.3,0.3-0.3s0.3,0.1,0.3,0.3c0,0.4,1.3,1,3.4,1 c2.1,0,3.4-0.6,3.4-1c0-0.1,0.1-0.3,0.3-0.3s0.3,0.1,0.3,0.3C65.4,55,63.4,55.5,61.5,55.5z"/><path fill="#472b29" d="M65.3,35c0.6,1.1,1.7,1.7,2.9,1.7c0.3,0,0.6,0,0.9-0.1c0.5,0.6,1.2,0.9,1.9,0.9h0.3 c1.4,0.4,3.7,0.7,4.4-2.3c-0.6,0.4-1.3,0.5-2,0.2c0-0.4-0.1-0.8-0.2-1.1c0.5-0.4,0.7-1,0.7-1.6c0-1.3-1.1-2.3-2.4-2.3l0,0 c0.1-0.3,0.1-0.6,0.1-0.9c-0.1-1.6-1.4-2.9-3-2.9c-0.3,0-0.6,0-0.8,0.1c0,0,0-0.1,0-0.1c-0.1-2-1.8-3.5-3.8-3.4 c-1.1,0-2.2,0.5-3,1.3c-0.9-0.5-1.8-0.8-2.8-0.8c-2.5,0-4.6,1.6-4.6,3.6c0,0.1,0,0.2,0,0.3c-0.6,0.3-1,0.7-1.3,1.3 c0,0,0.4,2,0.4,2.2c0.5,0.6,1.1,1,1.8,1.2c0.7,0.2,1.5,0.2,2.3,0c0.6,1.9,2.7,3.3,5.3,3.3C63.5,35.7,64.4,35.4,65.3,35z"/><path fill="#9f8066" d="M53.3,31.5c-0.1,0-0.4,0.1-0.5,0.1 c-0.5,0-0.8,0.5-0.8,0.9l0.8,5.4c0-0.5,0.2-4.6,1.5-5.8C54,32,53.6,31.8,53.3,31.5z" opacity=".94"/><path fill="#472b29" d="M60.1 37.8c-1.8-.4-3.7-.5-5.5-.3-.1 0-.1.1-.2.1 0 .1.1.1.2.2 1.7.2 3.3.4 5 .8h.1c.1 0 .1 0 .2-.1l.4-.5c0 0 0-.1 0-.1C60.2 37.9 60.2 37.9 60.1 37.8zM63.1 37.8c1.8-.4 3.7-.5 5.5-.3.1 0 .1.1.2.1 0 .1-.1.1-.2.2 0 0-3.8.5-5 .8h-.1c-.1 0-.1 0-.2-.1L63 38.1C63 38 63 38 63.1 37.8 63 37.9 63.1 37.9 63.1 37.8zM57.5 39.5c-.4 0-.7.2-.9.6h.2c.3 0 .6.3.6.6s-.3.6-.6.6c-.1 0-.2 0-.3-.1.1.5.5.9 1 1 .7-.2 1.2-.9 1-1.7C58.4 40.1 58 39.7 57.5 39.5L57.5 39.5zM65.7 39.5c-.3 0-.6.2-.8.5.1 0 .1 0 .2 0 .3 0 .6.3.6.6s-.3.6-.6.6l0 0c-.2 0-.4-.1-.5-.3.2.6.8.9 1.3.8.6-.2.9-.8.8-1.3C66.6 39.9 66.2 39.6 65.7 39.5L65.7 39.5z"/><path fill="#472b29" d="M61.6,46.5c0.6,0,1.2-0.3,1.6-0.7c0.1-0.1,0.1-0.2,0-0.3 c0,0,0,0,0,0c-0.1-0.1-0.2-0.1-0.3,0c0,0,0,0,0,0c-0.7,0.6-1.8,0.6-2.5,0c-0.1-0.1-0.3-0.1-0.3,0c-0.1,0.1-0.1,0.2,0,0.3 c0,0,0,0,0,0C60.4,46.2,61,46.4,61.6,46.5z" opacity=".41"/><path fill="#472b29" d="M61.8,53.4c-1.5,0-3.8-1.3-4-1.4c-0.1-0.1-0.2-0.2-0.1-0.3s0.2-0.2,0.3-0.1c0,0,2.6,1.5,3.9,1.3 c1.1-0.2,2.3-0.7,3.3-1.3c0.1-0.1,0.3,0,0.3,0.1c0.1,0.1,0,0.3-0.1,0.3c-1.1,0.7-2.2,1.2-3.5,1.4C61.9,53.4,61.8,53.4,61.8,53.4 z"/><g opacity=".3"><path fill="#ba8964" d="M56.3 43.8A1.5 1.5 0 1 0 56.3 46.8 1.5 1.5 0 1 0 56.3 43.8zM67.5 43.8A1.5 1.5 0 1 0 67.5 46.8 1.5 1.5 0 1 0 67.5 43.8z" opacity=".8"/></g><path fill="#8e7469" d="M59.3 42.199999999999996A.2.2 0 1 0 59.3 42.6.2.2 0 1 0 59.3 42.199999999999996zM59.5 43.5A.2.2 0 1 0 59.5 43.900000000000006.2.2 0 1 0 59.5 43.5zM60.6 42.8A.2.2 0 1 0 60.6 43.2.2.2 0 1 0 60.6 42.8zM63 42.699999999999996A.2.2 0 1 0 63 43.1.2.2 0 1 0 63 42.699999999999996zM63.6 43.8A.2.2 0 1 0 63.6 44.2.2.2 0 1 0 63.6 43.8zM64.4 42.8A.2.2 0 1 0 64.4 43.2.2.2 0 1 0 64.4 42.8z" opacity=".8"/><path fill="#472b29" d="M53.3 44.4c-.2 0-.3-.1-.3-.3l-.5-5.6c0-.2.1-.3.3-.3.2 0 .3.1.3.3l.5 5.6C53.6 44.3 53.5 44.4 53.3 44.4 53.3 44.4 53.3 44.4 53.3 44.4zM70 44.3C70 44.3 70 44.3 70 44.3c-.2 0-.3-.2-.3-.3l.3-5.5c0-.2.1-.3.3-.3.2 0 .3.2.3.3l-.3 5.5C70.3 44.2 70.2 44.3 70 44.3z"/><path fill="#ee3e54" d="M70.8,56.4l-3.6-1.3l-5.9,11l-6-10.5l-3.8,1.3l-0.5,13c9,4.6,20.6,0.2,20.6,0.2L70.8,56.4z"/><path fill="#472b29" d="M60.8,72.5c-5.2,0-10.5-1.1-14.3-4.6c-0.1-0.1-0.2-0.3-0.2-0.4c0.1-0.6,0.2-2.2,0.2-3.6 c0.1-2.1,0.2-2.8,0.2-3c0.4-1.4,1.3-2.7,2.5-3.6c0.6-0.4,1.2-0.6,1.8-0.8l5.7-2c0.3-0.1,0.5-0.3,0.5-0.5 c0.1-0.6,0.1-1.2,0.2-1.7c-1.6-1-3-2.4-4.1-3.9c-0.5-0.7-0.8-1.5-0.7-2.4v-1.4c-0.5-0.2-1-0.6-1.1-1.2c-0.3-0.8-0.7-2.8-0.7-2.9 c-0.3-0.9-0.1-1.4,0.2-1.7c0.2-0.2,0.5-0.5,1.1-0.6c-0.1-0.6-0.3-1.8-0.7-3.9c-0.1-0.6-0.2-1-0.2-1.1c-0.1-0.2-0.1-0.5-0.1-0.7 c0.1-0.5,0.3-1,0.7-1.3c0.2-0.1,0.4-0.2,0.6-0.3c-0.2-0.6-0.3-1.3-0.2-2c0.3-0.7,0.7-1.2,1.2-1.5c0,0,0,0,0,0 c0-2.3,2.3-4.2,5.1-4.2c0.9,0,1.9,0.2,2.7,0.7c0.8-0.8,1.9-1.2,3.1-1.2c0,0,0,0,0,0c2.1-0.1,4,1.4,4.3,3.5c0.1,0,0.2,0,0.4,0h0 c1,0,1.9,0.4,2.5,1c0.7,0.7,1,1.5,1,2.5c0,0.2,0,0.3,0,0.5c1.3,0.3,2.2,1.4,2.3,2.7c0,0.7-0.2,1.3-0.6,1.8 c0,0.1,0.1,0.2,0.1,0.3c0.5-0.1,1.1-0.3,1.4-0.8c0.1-0.2,0.4-0.2,0.6-0.1c0.2,0.1,0.3,0.3,0.3,0.5c-0.3,2-0.8,3.2-2.5,3.7 c-0.8,0.2-1.7,0.2-2.5,0.1c0.3,0.1,0.5,0.3,0.7,0.5c0.2,0.3,0.4,0.9,0.1,1.8c-0.1,0.5-0.5,2.3-0.7,2.9c-0.1,0.5-0.5,0.9-0.9,1.1 v1.8c0,0.5-0.2,1-0.4,1.5c-1.1,1.9-2.7,3.4-4.5,4.5c0,0.6,0.1,1.2,0.2,1.7c0,0.2,0.2,0.4,0.4,0.5c1.2,0.4,7.2,2.5,7.8,2.9 c1.6,0.8,2.7,2.6,2.6,4.5l0.4,6.8c0,0.2-0.1,0.4-0.2,0.5C75.1,70.2,68.1,72.5,60.8,72.5z M47.4,67.3c8.6,7.6,25.2,3,28.7,1.2 l-0.3-6.6c0-1.5-0.8-3-2.1-3.6c-0.4-0.3-4.2-1.6-7.6-2.8c-0.6-0.2-1-0.7-1.1-1.3c-0.1-0.7-0.2-1.4-0.2-2.2 c0-0.2,0.1-0.3,0.3-0.4c1.8-1,3.3-2.5,4.4-4.3c0.2-0.3,0.3-0.7,0.3-1l0-2.2c0-0.2,0.2-0.5,0.4-0.5c0.3,0,0.5-0.2,0.5-0.5 c0.3-0.9,0.7-2.8,0.7-2.9c0.1-0.5,0.1-0.8,0-0.9C71.2,39.1,71,39,70.5,39c-0.2,0-0.4-0.1-0.5-0.3c-0.1-0.2,0-0.4,0.2-0.6 c0.3-0.2,0.5-0.5,0.6-0.7c0.1-0.2,0.3-0.3,0.4-0.3c0,0,0.2,0,0.2,0c0.7,0.2,1.5,0.2,2.3,0c0.8-0.3,1.2-0.7,1.5-1.6 c-0.5,0.2-1,0.3-1.5,0.2c-0.3,0-0.4-0.2-0.5-0.5c0-0.3-0.1-0.5-0.2-0.7c-0.1-0.2,0-0.4,0.1-0.6c0.4-0.3,0.6-0.8,0.6-1.3 c0-1-0.9-1.8-1.9-1.8c0,0,0,0,0,0c-0.2,0-0.3-0.1-0.4-0.2c-0.1-0.1-0.1-0.3-0.1-0.4c0.1-0.2,0.1-0.5,0.1-0.7 c0-0.7-0.3-1.3-0.7-1.8S69.8,27,69.1,27c-0.3,0-0.5,0-0.8,0.1c-0.1,0-0.3,0-0.4-0.1c-0.1-0.1-0.2-0.2-0.2-0.4v-0.1 c-0.1-1.7-1.6-3.1-3.3-3c0,0,0,0,0,0c-1,0-2,0.4-2.6,1.2c-0.2,0.2-0.4,0.2-0.6,0.1c-0.8-0.5-1.6-0.7-2.5-0.7c0,0,0,0,0,0 c-2.3,0-4.1,1.4-4.1,3.2c0,0.1,0,0.2,0,0.2c0,0.2-0.1,0.4-0.3,0.5c-0.5,0.2-0.8,0.6-1,1.1c-0.1,0.6,0,1.3,0.4,1.8 c0.1,0.2,0.1,0.4,0,0.5c-0.1,0.2-0.3,0.3-0.5,0.2c-0.2,0-0.5,0-0.6,0.2s-0.3,0.4-0.3,0.6c0,0.1,0,0.2,0,0.4 c0,0.2,0.1,0.6,0.2,1.2c0.2,1.2,0.7,4,0.8,4.4c0,0.2,0,0.3-0.1,0.5C53,39,52.8,39,52.7,39c-0.4,0-0.7,0.1-0.9,0.3 c-0.1,0.2-0.1,0.5,0,0.9c0,0.1,0.5,2,0.7,2.9c0.1,0.3,0.3,0.6,0.6,0.6c0,0,0,0,0,0c0.1,0,0.3,0.1,0.4,0.1 c0.1,0.1,0.1,0.2,0.1,0.4V46c0,0.6,0.2,1.3,0.5,1.8c1,1.6,2.4,2.9,4,3.8c0.2,0.1,0.3,0.3,0.2,0.4c0,0.7-0.1,1.4-0.2,2.1 c-0.1,0.6-0.6,1.2-1.2,1.3l-5.7,2c-0.6,0.2-1.1,0.4-1.5,0.7c-1,0.7-1.8,1.8-2.1,3c0,0.2-0.1,1.6-0.2,2.7 C47.5,65.2,47.4,66.5,47.4,67.3z"/><path fill="#6d1b18" d="M58.4,48c0,0.2-0.1,0.3-0.1,0.5c0,1.3,1.5,2.5,3.3,2.5s3.4-1.1,3.4-2.5c0-0.2,0-0.3-0.1-0.5H58.4 z"/><path fill="#ee3e54" d="M63.5,50.5c-0.5-0.4-1.1-0.6-1.8-0.6c-0.6,0-1.3,0.2-1.8,0.6C61.1,51,62.4,51,63.5,50.5z"/><path fill="#fdfcef" d="M59.4,48v0.5c0,0.4,0.5,0.7,1.1,0.7H63c0.6,0,1.1-0.3,1.1-0.7V48l0,0H59.4z"/><path fill="#472b29" d="M61.7,51.2c-2,0-3.6-1.2-3.6-2.7c0-0.2,0-0.4,0.1-0.5c0-0.1,0.1-0.2,0.2-0.2H65 c0.1,0,0.2,0.1,0.2,0.2c0,0.2,0.1,0.3,0.1,0.5C65.3,49.9,63.7,51.2,61.7,51.2z M58.6,48.3c0,0.1,0,0.1,0,0.2 c0,1.2,1.4,2.2,3.1,2.2c1.7,0,3.1-1,3.1-2.2c0-0.1,0-0.1,0-0.2H58.6z"/></svg>