<svg xmlns="http://www.w3.org/2000/svg" xmlns:xlink="http://www.w3.org/1999/xlink" viewBox="0 0 100 100"><path fill="#fff" d="M20.4 55.6A.9.9 0 1 0 20.4 57.4.9.9 0 1 0 20.4 55.6zM79.4 30.900000000000002A.7.7 0 1 0 79.4 32.300000000000004.7.7 0 1 0 79.4 30.900000000000002z"/><path fill="#f1bc19" d="M76.8 11.7A.9.9 0 1 0 76.8 13.5.9.9 0 1 0 76.8 11.7zM20.9 63.300000000000004A.9.9 0 1 0 20.9 65.10000000000001.9.9 0 1 0 20.9 63.300000000000004z"/><path fill="#c0e5e4" d="M49.7 12.299999999999997A37.5 37.5 0 1 0 49.7 87.3A37.5 37.5 0 1 0 49.7 12.299999999999997Z"/><path fill="#f1bc19" d="M82.3 10.7A4 4 0 1 0 82.3 18.7A4 4 0 1 0 82.3 10.7Z"/><path fill="#ee3e54" d="M86.3 21.900000000000002A1.9 1.9 0 1 0 86.3 25.7A1.9 1.9 0 1 0 86.3 21.900000000000002Z"/><path fill="#fbcd59" d="M77.3 74.3A1.9 1.9 0 1 0 77.3 78.10000000000001 1.9 1.9 0 1 0 77.3 74.3zM14.1 59.3A4 4 0 1 0 14.1 67.3 4 4 0 1 0 14.1 59.3z"/><path fill="#ee3e54" d="M24.4 85.5A1.9 1.9 0 1 0 24.4 89.30000000000001A1.9 1.9 0 1 0 24.4 85.5Z"/><path fill="#fff" d="M18.1 52.1A2.5 2.5 0 1 0 18.1 57.1A2.5 2.5 0 1 0 18.1 52.1Z"/><path fill="#fdfcee" d="M55.3,65.3H27.2c-2,0-3.7-1.6-3.7-3.7V45.7c0-2,1.6-3.7,3.7-3.7h28.2c2,0,3.7,1.6,3.7,3.7v15.9 C59,63.6,57.4,65.3,55.3,65.3z"/><path fill="#472b29" d="M55.3,65.8H27.2c-2.3,0-4.3-1.9-4.3-4.3V45.7c0-2.3,1.9-4.3,4.3-4.3h28.2c2.3,0,4.3,1.9,4.3,4.3 v15.9C59.6,63.9,57.7,65.8,55.3,65.8z M27.2,42.6c-1.7,0-3.1,1.4-3.1,3.1v15.9c0,1.7,1.4,3.1,3.1,3.1h28.2 c1.7,0,3.1-1.4,3.1-3.1V45.7c0-1.7-1.4-3.1-3.1-3.1H27.2z"/><path fill="#472b29" d="M46.2 52.7c-.1 0-.2-.1-.3-.1-.1-.2-.1-.4.1-.5l12.1-8.6c.2-.1.4-.1.5.1.1.2.1.4-.1.5l-12.1 8.6C46.4 52.7 46.3 52.7 46.2 52.7zM37.3 52.7c-.1 0-.1 0-.2-.1L24.5 44c-.2-.1-.2-.3-.1-.5.1-.2.3-.2.5-.1L37.5 52c.2.1.2.3.1.5C37.5 52.6 37.4 52.7 37.3 52.7zM23.9 63.4c-.1 0-.2-.1-.3-.2-.1-.2-.1-.4.1-.5l17.4-11.3c.5-.3 1.2-.3 1.7 0l16 11.3c.2.1.2.3.1.5-.1.2-.3.2-.5.1l-16-11.3c-.3-.2-.6-.2-.9 0L24.1 63.3C24 63.4 23.9 63.4 23.9 63.4z"/><path fill="#fdfcee" d="M29.1,45.4V39l8.4-7.4h13.2c1.9-0.1,3.5,1.3,3.6,3.2V43"/><path fill="#472b29" d="M29.1,45.8c-0.2,0-0.4-0.2-0.4-0.4V39c0-0.1,0-0.2,0.1-0.3l8.4-7.4c0.1-0.1,0.1-0.1,0.2-0.1h13.2 c2-0.1,3.8,1.5,3.9,3.5V43c0,0.2-0.2,0.4-0.3,0.4s-0.3-0.2-0.3-0.4v-8.2c-0.1-1.6-1.6-2.9-3.2-2.8l-13.1,0l-8.1,7.2v6.3 C29.5,45.6,29.3,45.8,29.1,45.8z"/><path fill="#cbc9bc" d="M50.7 46.9H40.6c-.2 0-.4-.2-.4-.4s.2-.4.4-.4h10.1c.2 0 .3.2.3.4S50.9 46.9 50.7 46.9zM50.7 44.3H40.6c-.2 0-.4-.2-.4-.4s.2-.4.4-.4h10.1c.2 0 .3.2.3.4S50.9 44.3 50.7 44.3z"/><path fill="#e1e0d8" d="M38.4 46.4L38.4 41.4 32.7 41.4 32.7 47.3 37.2 47.3"/><path fill="#cbc9bc" d="M37.2 47.6h-4.5c-.2 0-.4-.2-.4-.4v-5.9c0-.2.2-.4.4-.4h5.7c.2 0 .4.2.4.4v4.9c0 .2-.2.4-.4.4s-.4-.2-.4-.4v-4.6h-5v5.1h4.1c.2 0 .4.2.4.4S37.4 47.6 37.2 47.6zM50.7 41.8H40.6c-.2 0-.4-.2-.4-.4s.2-.4.4-.4h10.1c.2 0 .3.2.3.4S50.9 41.8 50.7 41.8z"/><path fill="#cdcbbd" d="M37.7,31.7v4.1c-0.2,1.9-1.8,3.3-3.7,3.2h-4.8"/><path fill="#472b29" d="M34.2,39.4c-0.1,0-0.1,0-0.2,0l-4.8,0c-0.2,0-0.4-0.2-0.4-0.4s0.2-0.4,0.4-0.4H34 c1.8,0.1,3.2-1.2,3.4-2.9l0-4.1c0-0.2,0.2-0.4,0.4-0.4s0.4,0.2,0.4,0.4v4.1C37.9,37.9,36.2,39.4,34.2,39.4z"/><path fill="#ce9065" d="M77.4,59.4c-0.1-1.5-1.1-2.8-2.6-3.1l-0.3-0.1c-0.1-0.1-0.3-0.1-0.5-0.2c-1-0.4-6.8-2.5-6.8-2.5 c-0.4-0.1-0.8-0.4-1-0.8c-0.2-0.7-0.2-1.5-0.2-2.3c-1.3,0.4-2.6,0.8-3.9,1.1c-1.5,0.1-4.7-1.8-4.7-1.8s-0.1,2.4-0.2,2.9 c-0.1,0.5-0.5,0.8-1,0.9l-5.6,2c-0.6,0.2-1.2,0.4-1.7,0.7c-1.2,0.8-2.1,1.9-2.5,3.2c0,0-0.4,2.6-0.4,2.7c0,0.4-0.1,0.8-0.1,1.2 c6,4.1,10.9,5.2,19.3,4.9c4.3-0.4,8.5-1.6,12.4-3.5C77.7,61.3,77.4,59.4,77.4,59.4z"/><path fill="#fdfcef" d="M74.8,56.3l-0.3-0.1c-0.1-0.1-0.3-0.1-0.5-0.2c-0.6-0.3-3-1.2-4.8-1.8h-0.1c-2,1-4.8,2.5-7.3,2.5 s-5.1-1.4-7.3-2.5l-0.2,0.1l-3.5,1.3c-0.6,0.2-1.2,0.4-1.7,0.7c-1.2,0.8-2.1,1.9-2.5,3.2c0,0-0.4,2.6-0.4,2.7 c0,0.4-0.1,4.2-0.1,4.7c6,4.1,10.9,5.3,19.3,4.9c4.3-0.4,8.5-1.6,12.4-3.5c-0.2-3.3-0.4-8.7-0.4-8.7 C77.4,57.9,76.3,56.7,74.8,56.3z"/><path fill="#e1e0d8" d="M56,53.9l-2.3,0.8l4.7,5.9l4.1-4.3C62.4,56.4,56.3,55.1,56,53.9z"/><path fill="#e1e0d8" d="M68.2,53.9l2.1,1.2l-4.4,5.6l-4.1-4.3C61.7,56.4,67.9,55.1,68.2,53.9z"/><path fill="#ce9065" d="M71.4,37.2h-0.3c-0.8,0-1,0.3-0.9-0.2c0.1-0.8,0-4.2,0-4.3c0-3.5-3.6-6.3-8.2-6.5h-0.2 c-4.5,0.2-8.2,3-8.2,6.5c0,0.2-0.1,3.5-0.1,4.3c0,0.5-0.2,0.2-0.9,0.2h-0.3c-0.8,0-1.4,0.5-1.6,1.2c0.1,0.1,0.5,2.9,1.1,4 c0.3,0.6,0.9,0.7,1.4,1.1c0.3,0.2,0.4,0.5,0.5,0.8c0.4,1.2,1.1,2.3,2.1,3.2c0.5,0.5,3.5,3.7,6.1,3.5c2.6-0.2,5.6-3,6.1-3.5 c1-0.9,1.7-2,2.1-3.2c0-0.3,0.2-0.6,0.4-0.8c0.6-0.4,1.1-0.5,1.4-1.1c0.5-1.3,0.8-2.6,1.1-4C72.9,37.7,72.2,37.2,71.4,37.2z"/><path fill="#ce9065" d="M62,53.4c1.6,0,6-2.1,7.6-4.3c1.1-1.5,0.6-3.6,0.6-6.4c0-6.8,2.6-15.1-8.2-15.1 s-8.3,8.3-8.3,15.1c0,2.8-0.5,4.9,0.7,6.4C56,51.3,60.4,53.4,62,53.4L62,53.4z"/><defs><path id="s35ugInWlASZPurFOFk4Ia" d="M62,53.4c1.6,0,6-2.1,7.6-4.3c1.1-1.5,0.6-3.6,0.6-6.4c0-6.8,2.6-15.1-8.2-15.1s-8.3,8.3-8.3,15.1 c0,2.8-0.5,4.9,0.7,6.4C56,51.3,60.4,53.4,62,53.4L62,53.4z"/></defs><clipPath id="s35ugInWlASZPurFOFk4Ib"><use xlink:href="#s35ugInWlASZPurFOFk4Ia"/></clipPath><g clip-path="url(#s35ugInWlASZPurFOFk4Ib)"><path fill="#512c2b" d="M70.1,39.7c0,0-0.3,4.3-1.5,5.1c-0.8,0.5-1.7,0.9-2.7,1.2h-8c-1-0.3-1.9-0.7-2.7-1.2 c-1.2-0.8-1.5-5.1-1.5-5.1c-0.3,2.4-0.4,4.8-0.2,7.2c0.1,0.9,0.4,1.7,0.9,2.4c0,0,4.6,4.7,5,4.9c0.8,0.1,1.7,0.2,2.5,0.1 c0.8,0.1,1.7,0,2.5-0.1c0.4-0.2,5.3-4.8,5.3-4.8c0.4-0.8,0.7-1.8,0.8-2.7C70.8,44.4,70.6,42,70.1,39.7L70.1,39.7z"/></g><path fill="#603535" d="M68.5,44.8c-1.7,0.9-1.8-0.9-3.6-1.3c-1.1-0.3-2.3,0.2-3,1.2c-0.7-0.9-1.9-1.3-3-1.2 c-1.8,0.5-1.9,2.2-3.6,1.3c-0.2,0,4.4,4.6,6.6,1.4C64.1,49.4,68.7,44.8,68.5,44.8L68.5,44.8z"/><path fill="#e1e0d8" d="M51.5 70.1c-.2 0-.3-.1-.3-.3v-3.1c0-.2.1-.3.3-.3s.3.1.3.3v3.1C51.8 70 51.7 70.1 51.5 70.1zM72.1 70.7c-.2 0-.3-.1-.3-.3v-3.6c0-.2.1-.3.3-.3s.3.1.3.3v3.6C72.4 70.5 72.2 70.7 72.1 70.7z"/><path fill="#512c2b" d="M62,43.4c0.5,0,1-0.2,1.4-0.6c0,0,0-0.1,0-0.1c0,0,0,0,0,0l0,0c0,0-0.1,0-0.1,0 c-0.7,0.6-1.8,0.6-2.5,0c0,0,0,0-0.1,0c0,0,0,0-0.1,0c0,0,0,0.1,0,0.1C61,43.2,61.5,43.4,62,43.4z"/><path fill="#603535" d="M60.3 36.2l.3-.7c-1.5-.3-3-.3-4.4.1l.4.6C57.8 36 59.1 35.9 60.3 36.2zM67.4 36.2l.3-.7c-1.5-.3-3-.3-4.4.1l.4.6C65 36 66.2 35.9 67.4 36.2z"/><path fill="#512c2b" d="M58.2 37.2c-.4 0-.7.2-.8.6h.1c.3 0 .6.3.6.6 0 .3-.3.6-.6.6-.1 0-.2 0-.3-.1.1.5.4.9.9.9.7-.2 1.1-.9.9-1.6C59 37.6 58.7 37.3 58.2 37.2L58.2 37.2zM65.7 37.2c-.3 0-.6.2-.7.4.1 0 .1 0 .2 0 .3 0 .5.3.5.6 0 0 0 0 0 0 0 .3-.2.5-.5.6 0 0 0 0 0 0-.2 0-.3-.1-.4-.3.2.5.7.8 1.2.7.5-.2.8-.7.7-1.2C66.5 37.5 66.1 37.2 65.7 37.2L65.7 37.2z"/><path fill="#895d3d" d="M71.6 41L71 40.9l.1-1.3-.7.3-.2-.6 1.2-.5c.1 0 .2 0 .3 0 .1.1.1.2.1.3L71.6 41zM52.6 40.7l-.2-1.8c0-.1 0-.2.1-.3.1-.1.2-.1.3 0l1.1.5-.2.5L53 39.4l.1 1.3L52.6 40.7z"/><path fill="#472b29" d="M62.7,72.4c-7,0-11.5-1.4-16.8-5c-0.1-0.1-0.2-0.3-0.2-0.4c0-0.3,0.5-7.4,0.5-7.4c0,0,0-0.1,0-0.1 c0.4-1.5,1.4-2.7,2.7-3.5c0.6-0.4,1.2-0.6,1.9-0.8l5.5-2c0.4-0.1,0.6-0.3,0.7-0.6c0-0.1,0-0.3,0-0.4c-1.1-0.7-2.1-1.5-3-2.5 c-1-1.3-0.9-3-0.8-4.9l0-0.3c0-0.1-0.1-0.2-0.2-0.3c-0.2-0.1-0.3-0.2-0.5-0.3c-0.4-0.2-0.8-0.4-1.1-1c-0.6-1.3-1-2.7-1.1-4.2 c0-0.1,0-0.1,0-0.2c0.3-0.9,1.1-1.6,2.1-1.6h0.3c0.1,0,0.2,0,0.3,0c0-1.1,0-2.2,0.2-3.2l0-0.8c0-3.7,3.8-6.8,8.6-7l0.2,0 c4.9,0.2,8.7,3.2,8.7,7v0.4c0.2,1.2,0.3,2.4,0.3,3.7c0.1,0,0.2,0,0.3,0l0.2,0c1,0,1.8,0.7,2.1,1.6c0,0.1,0,0.1,0,0.2 c-0.1,1.5-0.5,2.9-1.1,4.2c-0.3,0.6-0.7,0.8-1.1,1c-0.1,0.1-0.3,0.2-0.5,0.3c-0.1,0-0.1,0.1-0.1,0.2l0,0.5 c0.1,1.8,0.2,3.4-0.8,4.7c-0.9,1.1-2,2-3.2,2.7c0,0.1,0.1,0.2,0.1,0.3c0.1,0.3,0.4,0.5,0.7,0.5c0.3,0.1,5.8,2.2,6.8,2.6L75,56 c1.6,0.4,2.8,1.9,2.9,3.6c0,0,0,0,0,0c0,0,0.4,7.7,0.4,8.7c0,0.2-0.1,0.4-0.3,0.5c-3.1,1.6-8.8,3.4-12.6,3.6 C64.6,72.4,63.6,72.4,62.7,72.4z M46.8,66.7c5.7,3.8,10.5,5,18.7,4.6c3.6-0.1,8.8-1.8,11.9-3.3c-0.1-1.8-0.4-8.2-0.4-8.4 c-0.1-1.3-1-2.4-2.2-2.7l-0.8-0.3c-1-0.4-6.7-2.5-6.8-2.5c-0.5-0.1-1-0.5-1.3-1.1c-0.1-0.3-0.2-0.6-0.2-0.9 c0-0.2,0.1-0.4,0.3-0.5c1.2-0.7,2.3-1.5,3.2-2.6c0.7-1,0.6-2.3,0.6-4.1l0-0.6c0,0,0-0.1,0-0.1c0.1-0.3,0.3-0.6,0.5-0.8 c0.2-0.1,0.4-0.3,0.6-0.4c0.3-0.2,0.5-0.3,0.7-0.6c0.5-1.2,0.9-2.4,1-3.7c-0.2-0.5-0.6-0.8-1.1-0.8h-0.3c-0.3,0-0.5,0-0.7,0 c-0.1,0-0.3,0-0.4-0.1c-0.1-0.1-0.2-0.2-0.2-0.4c0.1-1.4,0-2.7-0.2-4.1l0-0.5c0-3.2-3.4-5.8-7.7-6l-0.2,0c-4.3,0.2-7.7,2.8-7.7,6 v0.9C54,35,53.9,36.2,54,37.4c0,0.2-0.1,0.3-0.2,0.4c-0.1,0.1-0.3,0.1-0.4,0.1c-0.2,0-0.5-0.1-0.7-0.1h-0.3 c-0.5,0-0.9,0.3-1.1,0.8c0.1,1.3,0.5,2.6,1,3.7c0.1,0.3,0.4,0.4,0.7,0.6c0.2,0.1,0.4,0.2,0.6,0.4c0.4,0.3,0.6,0.7,0.6,1.1l0,0.4 C54.1,46.6,54,48,54.8,49c0.8,1,1.8,1.8,3,2.4c0.2,0.1,0.3,0.3,0.3,0.5c0,0.3,0,0.6-0.1,0.9c-0.2,0.7-0.8,1.2-1.4,1.3l-5.5,2 c-0.6,0.2-1.1,0.4-1.6,0.7c-1.1,0.7-1.9,1.7-2.2,2.9C47.2,60.3,46.8,65.4,46.8,66.7z"/><path fill="#603535" d="M69.8,29.3c1,0.2,1.7,1.1,1.7,2.1c0,1.7-1.2,9.1-1.2,9.1l-2.4-7.6L69.8,29.3L69.8,29.3z"/><path fill="#512c2b" d="M60.7,24.5l-0.9-1.3c0,0,10.2-1.1,10.2,4.5c0.1,4.2-2.6,7.9-6.6,9l0.5-2l-4,2.1l0.5-1.2L57,36.9 l1.2-2.8l-3,1.1c-0.7,1.7-1.2,3.5-1.6,5.3c0,0-2.3-7.9-0.8-8.5l-0.6-0.3l0.7-1.4l-1-0.4l0.9-1.3L52.5,28l2-1.2l-1.1-0.5 C53.4,26.3,56.8,23.5,60.7,24.5L60.7,24.5z"/><path fill="#00a5a5" d="M69.2,37.2h-0.1h-0.2h-0.8c-0.5,0-1,0-1.5,0c-0.8,0-1.5,0-2.3,0.2h-0.2c-0.6,0.1-1.2,0.2-1.7,0.4 c-0.4,0.2-0.8,0.2-1.2,0H61c-0.2-0.1-0.3-0.1-0.5-0.2l-0.4-0.1c-0.6-0.1-1.3-0.2-2-0.3c-0.5,0-0.9-0.1-1.4-0.1h-0.6h-0.6 l-1.4,0.1c-0.4,0-0.7,0.1-1,0.3c0,0-0.1,0.1-0.1,0.2c0,0.2,0.1,0.4,0.1,0.6s0.1,0.4,0.1,0.6s0.3,0.3,0.6,0.5 c0.1,0,0.2,0.1,0.3,0.1c0.1,0.1,0.1,0.1,0.2,0.2l0,0l0.2,0.3c0.1,0.1,0.2,0.3,0.3,0.4c0.1,0.1,0.2,0.2,0.3,0.3 c0.2,0.1,0.3,0.1,0.5,0.2c1.2,0.3,2.4,0.3,3.7,0.3c0.7,0,1.2-0.4,1.4-1.1l0.2-0.5l0.1-0.3c0-0.2,0.2-0.3,0.3-0.3h0.4 c0.3,0,0.4,0,0.5,0.4l0.1,0.2c0.1,0.3,0.3,0.7,0.4,1c0.1,0.3,0.4,0.6,0.8,0.6c0.2,0,0.3,0.1,0.5,0.1c0.3,0,0.6,0,0.9,0 c0.8,0,1.7-0.1,2.5-0.2c0.6,0,1.2-0.4,1.4-1c0.1-0.2,0.2-0.4,0.4-0.5c0.1-0.1,0.2-0.1,0.3-0.2c0.3-0.1,0.5-0.2,0.5-0.3H70 c0,0,0.1,0,0.1-0.1c0,0,0,0,0,0c0-0.1,0-0.2,0-0.4c0-0.3,0.1-0.6,0.1-0.8S69.8,37.2,69.2,37.2z M64.8,37.7c0.3,0,0.6-0.1,0.9-0.1 h1.4c0.4,0,0.7,0,1.1,0.1s0.5,0.2,0.5,0.6c0,0.5-0.1,1.1-0.4,1.5c-0.1,0.1-0.2,0.2-0.3,0.3c-0.5,0.2-1,0.4-1.5,0.4 c-0.7,0-1.3,0-1.9,0h-0.3c-0.4,0-0.8-0.2-1-0.6c-0.3-0.5-0.4-1-0.4-1.6c0-0.2,0.1-0.3,0.3-0.4c0.4-0.2,0.9-0.3,1.4-0.3L64.8,37.7 z M60.6,38.6c0,0.6-0.2,1.1-0.6,1.6c-0.2,0.2-0.4,0.3-0.7,0.3c-0.4,0-0.8,0-1.1,0l0,0c-0.7,0-1.5-0.1-2.2-0.3 c-0.2-0.1-0.4-0.1-0.6-0.3c-0.1-0.1-0.2-0.2-0.3-0.3c-0.2-0.5-0.3-1-0.3-1.5c0-0.4,0.1-0.5,0.5-0.6s0.8-0.1,1.2-0.1H57 c1,0,2,0.1,3,0.4l0.2,0.1C60.5,38.1,60.6,38.2,60.6,38.6z"/></svg>